<svg width="138" height="130" viewBox="0 0 138 130" fill="none" xmlns="http://www.w3.org/2000/svg">
<g clip-path="url(#clip0_108_216)">
<rect width="138" height="130" fill="#F3F3F3"/>
<path d="M69 78.0232C75.7931 78.0232 81.2999 72.1925 81.2999 65C81.2999 57.8075 75.7931 51.9768 69 51.9768C62.2068 51.9768 56.7 57.8075 56.7 65C56.7 72.1925 62.2068 78.0232 69 78.0232Z" fill="#61DAFB"/>
<path d="M69 91.6817C105.451 91.6817 135 79.7359 135 65C135 50.2641 105.451 38.3183 69 38.3183C32.5492 38.3183 3 50.2641 3 65C3 79.7359 32.5492 91.6817 69 91.6817Z" stroke="#61DAFB" stroke-width="3"/>
<path d="M47.1761 78.3408C65.4014 111.764 89.9469 132.886 102 125.518C114.053 118.15 109.049 85.0825 90.8237 51.6592C72.5983 18.2358 48.0529 -2.8863 35.9999 4.48164C23.9469 11.8496 28.9507 44.9175 47.1761 78.3408Z" stroke="#61DAFB" stroke-width="3"/>
<path d="M47.1761 51.6592C28.9507 85.0825 23.9469 118.15 35.9999 125.518C48.0529 132.886 72.5983 111.764 90.8237 78.3408C109.049 44.9175 114.053 11.8496 102 4.48164C89.9469 -2.8863 65.4015 18.2358 47.1761 51.6592Z" stroke="#61DAFB" stroke-width="3"/>
</g>
<defs>
<clipPath id="clip0_108_216">
<rect width="138" height="130" fill="#F3F3F3"/>
</clipPath>
</defs>
</svg>
